<?xml version="1.0" encoding="utf-8"?>
<?xml-stylesheet type="text/xsl" href="rss1.xsl"?>
<rss version="2.0" xmlns:atom="http://www.w3.org/2005/Atom" xmlns:content="http://purl.org/rss/1.0/modules/content/" xmlns:dc="http://purl.org/dc/elements/1.1/" xmlns:media="http://search.yahoo.com/mrss/">
<channel>
 <title>Getty</title>
 <link>http://www.gettyimg.com/</link>
 <atom:link href="http://www.gettyimg.com/" rel="self" type="application/rss+xml" />

 
                <item>
                <title><![CDATA[【Music Videos】Muni Long - Made For Me [4K 2160p AM | HEVC 10-bit | PCM 24-bit 48 kHz]]]></title>
                <link><![CDATA[https://sharemania.us/threads/muni-long-made-for-me-4k-2160p-am-hevc-10-bit-pcm-24-bit-48-khz.236489/]]></link>
                <description><![CDATA[<article>
<blockquote class="messageText SelectQuoteContainer ugc baseHtml">
<b><img src="https://images2.imgbox.com/56/62/f162fIwH_o.jpg" class="bbCodeImage LbImage" alt="[​IMG]" data-url="https://images2.imgbox.com/56/62/f162fIwH_o.jpg" style=""> <br>
<br>
Genre: <span style="color: #0059b3">Funk / Soul</span> <br>
Style: <span style="color: #0059b3">Contemporary R&amp;B</span> <br>
Year: <span style="color: #0059b3">2023</span><br>
Video Source: <span style="color: #0059b3">Apple Music, thanks SonMaxime</span><br>
Audio Source: <span style="color: #0059b3">Qobuz Hi-Res 24-bit 48 kHz</span></b><br>
<br>
"<b>Made For Me</b>" is a song by American singer-songwriter Muni Long, released on September 15, 2023. In Januari, 2024, the single gains from viral buzz and debuts on the Hot 100. Muni Long banks her second top 10 on <i>Billboard</i>’s Hot R&amp;B Songs chart as “Made for Me” races 15-8 on the list dated Jan. 27. The single, already a major airplay hit, finds its new wind thanks to the release of its music video and a resulting social media trend that fueled streaming and sales bumps.<br>
<br>
“Made for Me,” released on Supergiant/Def Jam Records, earned 3.9 million official U.S. streams in the tracking week of Jan. 12 – 18, according to Luminate, up from 125% to 1.8 million the previous week. The nearly 2-million stream improvement comes largely thanks to the song’s growing viral profile from a video started by TikTok creator @milck.marie, in which participants (usually in blue pajamas) sing the song’s hook while walking toward the camera. On TikTok, the track’s main audio has swelled to soundtracking 163,000 clips – up from 44,000 on Jan. 18. In addition, the song’s official music video, which stars actor and singer Luke James, dropped at the tail end of the tracking week, on Jan. 17. Source: <a href="https://www.billboard.com/music/chart-beat/muni-long-made-for-me-top-10-rb-songs-chart-1235589898/" target="_blank" class="externalLink" rel="nofollow">billboard.com</a><br>
<br>
<b>Release Info</b><br>
The video track is downloaded from Apple Music by SonMaxime (2160p HEVC 10-bit).<br>
The PCM track is lossless (Qobuz Hi-Res 24-bit 48 kHz), synced with Adobe Audition.<br>
The timed lyrics are synced and edited. Enable the subtitles to see the lyrics.<br>
<br>
<div class="ToggleTriggerAnchor bbCodeSpoilerContainer">
<button type="button" class="button bbCodeSpoilerButton ToggleTrigger Tooltip JsOnly" data-target="> .SpoilerTarget"><span>Spoiler: <span class="SpoilerTitle">Media Info</span></span></button>
<div class="SpoilerTarget bbCodeSpoilerText">
<div class="bbCodeBlock bbCodeCode">
<div class="type">Code:</div>
<pre>General
Unique ID                      : 328916980139599699435828421978040507247 (0xF7731B2B20B61E18D976860D5A071B6F)
Complete name                  : Muni Long - Made For Me.mkv
Format                         : Matroska
Format version                 : Version 4 / Version 2
File size                      : 366 MiB
Duration                       : 3 min 15 s
Overall bit rate               : 15.8 Mb/s
Frame rate                     : 23.976 FPS
Encoded date                   : 2024-01-26 13:32:43 UTC
Writing application            : mkvmerge v82.0 ('I'm The President') 64-bit
Writing library                : libebml v1.4.5 + libmatroska v1.7.1
Cover                          : Yes
Attachments                    : cover.jpg

Video
ID                             : 1
Format                         : HEVC
Format/Info                    : High Efficiency Video Coding
Format profile                 : Main 10@L5@High
Codec ID                       : V_MPEGH/ISO/HEVC
Duration                       : 3 min 15 s
Bit rate                       : 13.2 Mb/s
Width                          : 3 840 pixels
Height                         : 1 608 pixels
Display aspect ratio           : 2.39:1
Frame rate mode                : Constant
Frame rate                     : 23.976 (23976/1000) FPS
Color space                    : YUV
Chroma subsampling             : 4:2:0
Bit depth                      : 10 bits
Bits/(Pixel*Frame)             : 0.089
Stream size                    : 307 MiB (84%)
Language                       : English
Default                        : Yes
Forced                         : No
Color range                    : Limited
Color primaries                : BT.709
Transfer characteristics       : BT.709
Matrix coefficients            : BT.709

Audio #1
ID                             : 2
Format                         : PCM
Format settings                : Little / Signed
Codec ID                       : A_PCM/INT/LIT
Duration                       : 3 min 15 s
Bit rate mode                  : Constant
Bit rate                       : 2 304 kb/s
Channel(s)                     : 2 channels
Sampling rate                  : 48.0 kHz
Frame rate                     : 25.000 FPS (1920 SPF)
Bit depth                      : 24 bits
Delay relative to video        : 42 ms
Stream size                    : 53.6 MiB (15%)
Title                          : Lossless 24-bit 48 kHz
Language                       : English
Default                        : Yes
Forced                         : No

Audio #2
ID                             : 3
Format                         : AAC LC
Format/Info                    : Advanced Audio Codec Low Complexity
Codec ID                       : A_AAC-2
Duration                       : 3 min 15 s
Bit rate                       : 265 kb/s
Channel(s)                     : 2 channels
Channel layout                 : L R
Sampling rate                  : 48.0 kHz
Frame rate                     : 46.875 FPS (1024 SPF)
Compression mode               : Lossy
Stream size                    : 6.13 MiB (2%)
Title                          : Lossy Original
Language                       : English
Default                        : Yes
Forced                         : No

Text
ID                             : 4
Format                         : UTF-8
Codec ID                       : S_TEXT/UTF8
Codec ID/Info                  : UTF-8 Plain Text
Duration                       : 2 min 38 s
Bit rate                       : 55 b/s
Frame rate                     : 0.258 FPS
Count of elements              : 41
Stream size                    : 1.07 KiB (0%)
Title                          : Lyrics
Language                       : English
Default                        : No
Forced                         : No
</pre>
</div></div>
</div><br>
<b>Note to the peeps @ RuTracker: Give credit if you post the work of someone else!</b><br>
- Hurby4 aka ADHDerby<br>
<br>
<div class="bbCodeBlock bbCodeVfcHH HiddenContent">
<div class="attribution type">Hidden Content:</div>
<blockquote>You must reply before you can see the hidden data contained here.</blockquote>
</div>
<div class="messageTextEndMarker">&nbsp;</div>
</blockquote>
</article>]]></description>
                <author><![CDATA[ADHDerby]]></author>
                </item>

                
                <item>
                <title><![CDATA[【Requests】[REQ AUD] - Caligula's Horse - Charcoal Grace]]></title>
                <link><![CDATA[https://sharemania.us/threads/caligulas-horse-charcoal-grace.236490/]]></link>
                <description><![CDATA[<article>
<blockquote class="messageText SelectQuoteContainer ugc baseHtml">
Hello everyone!<br>
<br>
Can someone get this album for me in the highest quality possible, please?<br>
<br>
<a href="https://music.amazon.com/albums/B0CLF12J2S" target="_blank" class="externalLink" rel="nofollow">https://music.amazon.com/albums/B0CLF12J2S</a><br>
<br>
Thanks a lot!
<div class="messageTextEndMarker">&nbsp;</div>
</blockquote>
</article>]]></description>
                <author><![CDATA[billboard.com]]></author>
                </item>

                </channel></rss>